# xmcd CD database file
#
# Track frame offsets:
#	150
#	19072
#	39971
#	63968
#	88521
#	112275
#	135398
#	141041
#	161213
#	182853
#	199689
#	210585
#	237039
#
# Disc length: 3447 seconds
#
# Revision: 4
# Processed by: cddbd v1.5.2PL0 Copyright (c) Steve Scherf et al.
# Submitted via: CDex 1.70beta3
#
DISCID=b00d750d
DTITLE=宇多田ヒカル - HEART STATION
DYEAR=2008
DGENRE=JPop
TTITLE0=Fight The Blues
TTITLE1=HEART STATION
TTITLE2=Beautiful World
TTITLE3=Flavor Of Life -Ballad Version-
TTITLE4=Stay Gold
TTITLE5=Kiss and Cry
TTITLE6=Gentle Beast Interlude
TTITLE7=Celebrate
TTITLE8=Prisoner Of Love
TTITLE9=テイク 5
TTITLE10=ぼくはくま
TTITLE11=虹色バス
TTITLE12=Flavor Of Life(Bonus Track)
EXTD=YEAR: 2008
EXTT0=
EXTT1=
EXTT2=
EXTT3=
EXTT4=
EXTT5=
EXTT6=
EXTT7=
EXTT8=
EXTT9=
EXTT10=
EXTT11=
EXTT12=
PLAYORDER=
